<svg xmlns="http://www.w3.org/2000/svg" xmlns:svg="http://www.w3.org/2000/svg" id="svg3818" width="90" height="90" version="1.1" viewBox="0 0 90 90"><metadata id="metadata3839"/><title id="title3820">2</title><desc id="desc3822">Created with Sketch.</desc><defs id="defs3824"><linearGradient id="lg" x1="180.489" x2="180.489" y1="0" y2="360.977" gradientTransform="matrix(0.18006667,0,0,0.15900813,12.499999,16.300829)" gradientUnits="userSpaceOnUse"><stop id="stop3398" offset="0%" stop-color="#FEAC3C"/><stop id="stop3400" offset="100%" stop-color="#FF0028"/></linearGradient><linearGradient id="lg-3" x1="180.489" x2="180.489" y1="0" y2="360.977" gradientTransform="matrix(0.15236411,0,0,0.13454534,17.5,20.716083)" gradientUnits="userSpaceOnUse"><stop id="stop3398-7" offset="0%" stop-color="#FEAC3C"/><stop id="stop3400-9" offset="100%" stop-color="#FF0028"/></linearGradient></defs><g id="Page-1" fill="none" fill-rule="evenodd" stroke="none" stroke-width="1"><g id="Desktop" transform="translate(-676.000000, -1794.000000)"><g id="Rectangle-154-+-Group" transform="translate(0.000000, 600.000000)"><g id="Group" transform="translate(0.000000, 58.000000)"><g id="Group-Copy-3-+-Rectangle-118-+-Oval-1-+-asp_net_icon_transparent-Copy-+-nodejs" transform="translate(533.000000, 1136.000000)"><g id="Group-Copy-3-+-Rectangle-118-+-Oval-1-+-asp_net_icon_transparent-Copy"><g id="2" transform="translate(143.000000, 0.000000)"><path id="Oval-1" fill="#FFF" d="M45,90 C69.8528137,90 90,69.8528137 90,45 C90,20.1471863 69.8528137,0 45,0 C20.1471863,0 0,20.1471863 0,45 C0,69.8528137 20.1471863,90 45,90 Z"/><path id="path3402" d="m 51.361547,20.716083 c 23.366616,15.11958 16.222043,34.13359 16.222043,34.13359 0,0 2.519929,2.86355 3.779894,6.41436 1.259965,3.55081 1.246081,7.90342 1.016997,8.01796 -0.229084,0.11454 -3.182798,-4.92532 -8.3477,-4.92532 -5.164902,0 -7.788874,4.92532 -16.95225,4.92532 C 26.448293,69.281993 17.5,52.358373 17.5,52.358373 c 0,0 9.077472,6.50028 18.584478,6.27119 9.507006,-0.22908 12.141475,-2.9781 12.141475,-2.9781 0,0 -4.250901,-3.557 -11.568765,-10.7097 -7.317863,-7.15269 -14.203237,-17.00952 -14.203237,-17.00952 0,0 11.031195,8.74277 14.569502,11.31452 3.538308,2.57176 7.076615,4.90241 7.076615,4.90241 0,0 -3.426806,-3.6969 -5.839288,-6.67049 -2.412483,-2.97359 -8.590668,-11.95182 -8.590668,-11.95182 0,0 9.475582,8.55499 13.786628,11.95182 4.311045,3.39684 12.558086,9.12395 12.558086,9.12395 0,0 4.968269,-11.33968 -4.653279,-25.88655 z" style="fill:url(#lg-3)"/></g></g></g></g></g></g></g></svg>