<svg xmlns="http://www.w3.org/2000/svg" xmlns:svg="http://www.w3.org/2000/svg" id="Layer_1" width="400" height="400" x="0" y="0" enable-background="new 0 0 361.958 444.604" version="1.1" viewBox="0 0 400 400" xml:space="preserve"><metadata id="metadata4980"/><circle style="fill:#fff;fill-opacity:1;stroke:none;stroke-width:5.096035;stroke-miterlimit:4;stroke-dasharray:none;stroke-opacity:1" id="path5119" cx="200" cy="200" r="200"/><g id="g5037" transform="matrix(0.97614556,0,0,0.97614556,-2.7759292,48.874151)"><g id="g3332_1_" transform="matrix(0.24008588,0,0,0.24008588,27.284379,-263.97111)"><path style="fill:#fbc712" id="path24_1_" d="M 751.584,1350.484 457.39,1323.606 226.453,1219.208 h 262.563 l 262.569,131.146"/><path style="fill:#fbc712" id="path26_1_" d="m 751.584,1350.484 311.798,-36.112 213.351,-95.165 h -262.585 l -262.565,131.146"/><path style="fill:#f6871f" id="path28_1_" d="m 751.584,2138.194 262.565,31.251 262.585,100.017 H 1014.149 L 751.584,2138.047"/><path style="fill:#f15e22" id="path30_1_" d="m 751.584,2138.194 -262.569,28.221 -262.563,103.047 h 262.563 l 262.569,-131.415"/><path style="fill:#fcee23" id="path32_1_" d="m 357.733,1744.341 -38.752,308.28 -92.529,216.841 v -262.548 l 131.28,-262.719"/><path style="fill:#fcee23" id="path34_1_" d="M 357.733,1744.341 328.215,1462.012 226.453,1219.208 v 262.561 l 131.28,262.426"/><path style="fill:#f04923" id="path36_1_" d="m 1145.433,1744.341 37.885,-285.408 93.399,-239.725 v 262.561 l -131.284,262.426"/><path style="fill:#f04923" id="path38_1_" d="m 1145.433,1744.341 25.617,289.817 105.667,235.304 v -262.548 l -131.284,-262.719"/><path style="fill:#f8b218" id="path16_1_" d="m 226.453,1219.208 525.131,131.276 v 393.633 H 357.733 l -131.28,-524.645"/><path style="fill:#f89d1c" id="path22_1_" d="m 226.453,2269.462 131.28,-525.121 393.851,-0.224 v 393.776 l -525.131,131.036"/><path style="fill:#f37321" id="path18_1_" d="m 1276.734,1219.208 -131.301,525.109 -393.849,-0.199 v -393.654 l 525.15,-130.991"/><path style="fill:#f15e22" id="path20_1_" d="m 1276.734,2269.462 -525.15,-131.268 v -394.077 l 393.849,0.224 131.301,524.588"/><path style="fill:#f6871f" id="path14_1_" d="m 751.584,1350.484 -393.851,393.857 393.851,393.853 393.849,-393.877 -393.849,-393.963"/></g></g></svg>