<svg xmlns="http://www.w3.org/2000/svg" xmlns:svg="http://www.w3.org/2000/svg" id="Layer_1" width="600" height="600" data-name="Layer 1" version="1.1" viewBox="0 0 600 600"><metadata id="metadata23"/><defs id="defs4"><style id="style2">.cls-1{fill:#00599c}.cls-2{fill:#004482}.cls-3{fill:#659ad2}.cls-4{fill:#fff}</style></defs><title id="title6">cpp_logo</title><circle id="path4527" cx="300" cy="300" r="300" style="fill:#fff;fill-opacity:1;stroke:none;stroke-width:.65803099;stroke-miterlimit:4;stroke-dasharray:none;stroke-opacity:1"/><g id="g4525" transform="translate(147,-127.84374)"><path id="path8" d="m 302.11,513.90999 a 27.11,27.11 0 0 0 3.89,-13 v -146.12 a 27.11,27.11 0 0 0 -3.89,-13 l -149.11,86.03 z" class="cls-1" style="fill:#00599c"/><path id="path10" d="m 166.25,596.83999 126.5,-73 a 27.11,27.11 0 0 0 9.36,-9.9 l -149.11,-86.12 -149.11,86.09 a 27.11,27.11 0 0 0 9.36,9.9 l 126.5,73 c 7.25,4.24 19.25,4.24 26.5,0.03 z" class="cls-2" style="fill:#004482"/><path id="path12" d="m 302.11,341.73999 a 27.11,27.11 0 0 0 -9.36,-9.9 l -126.5,-73 c -7.25,-4.19 -19.25,-4.19 -26.5,-0.03 l -126.5,73 C 6,336.04999 0,346.36999 0,354.78999 v 146.07 a 27.11,27.11 0 0 0 3.89,13 l 149.11,-86.04 z" class="cls-3" style="fill:#659ad2"/><path id="path14" d="m 153,529.81999 a 102,102 0 1 1 88.33,-153 l -44.14,25.55 a 51,51 0 1 0 0,51 l 44.14,25.54 a 102.36,102.36 0 0 1 -88.33,50.91 z" class="cls-4" style="fill:#fff"/><polygon id="polygon16" points="232.33 189.18 243.67 189.18 243.67 177.84 255 177.84 255 166.51 243.67 166.51 243.67 155.18 232.33 155.18 232.33 166.51 221 166.51 221 177.84 232.33 177.84" class="cls-4" style="fill:#fff" transform="translate(0,255.64999)"/><polygon id="polygon18" points="274.83 189.18 286.17 189.18 286.17 177.84 297.5 177.84 297.5 166.51 286.17 166.51 286.17 155.18 274.83 155.18 274.83 166.51 263.5 166.51 263.5 177.84 274.83 177.84" class="cls-4" style="fill:#fff" transform="translate(0,255.64999)"/></g></svg>