<svg xmlns="http://www.w3.org/2000/svg" xmlns:svg="http://www.w3.org/2000/svg" id="Lager_1" width="400" height="400" x="0" y="0" enable-background="new 0 0 403.25 353.688" version="1.1" viewBox="0 0 400 400" xml:space="preserve"><metadata id="metadata29"/><g id="g831"><ellipse style="fill:#fff;fill-opacity:1;stroke:none;stroke-width:.63291699;stroke-miterlimit:4;stroke-dasharray:none;stroke-opacity:1" id="path824" cx="200" cy="200" rx="199.684" ry="199.684"/><g id="g4166" transform="matrix(0.74378014,0,0,0.74378014,50.364824,68.134839)"><path style="fill:#a90533" id="path7" d="m 69.974,298.27401 c -29.674,-31.444 -47.036,-74.884 -46.992,-126.714 -0.041,-45.837 14.361,-85.235998 39.12,-115.215998 l -0.04,0.015 h -52.04 v 0 241.919998 h 59.915 z"/><path style="fill:#a90533" id="path9" d="m 344.046,298.29401 c 12.783,-13.691 24.237,-29.815 34.616,-48.255 l -57.6,-28.8 c -20.229,32.887 -49.812,63.158 -90.72,63.36 -59.537,-0.202 -82.929,-51.112 -82.8,-116.64 h 222.48 v 0 c 0.297,-7.398 0.297,-10.838 0,-14.399 1.452,-38.985 -8.88,-71.753998 -27.675,-97.272998 l -0.097,0.073 h 50.092 V 298.28001 h -48.405 z"/><path style="fill:#a90533" id="path11" d="m 151.143,111.79901 c 2.463,-29.667998 25.854,-49.619998 53.28,-49.679998 27.613,0.06 47.564,20.012 48.24,49.679998 z"/></g></g></svg>