<svg xmlns="http://www.w3.org/2000/svg" xmlns:xlink="http://www.w3.org/1999/xlink" width="305" height="305" version="1.1" viewBox="0 0 305 305"><title>32</title><desc>Created with Sketch.</desc><defs><linearGradient id="linearGradient-1" x1="76.053%" x2="18.915%" y1="67.454%" y2="29.175%"><stop offset="0%" stop-color="#A9C8FF"/><stop offset="100%" stop-color="#C7E6FF"/></linearGradient><linearGradient id="linearGradient-2" x1="18.023%" x2="75.293%" y1="28.64%" y2="66.895%"><stop offset="0%" stop-color="#2D4664"/><stop offset="16.89%" stop-color="#29405B"/><stop offset="44.45%" stop-color="#1E2F43"/><stop offset="79.02%" stop-color="#0C131B"/><stop offset="100%" stop-color="#000"/></linearGradient></defs><g id="Page-1" fill="none" fill-rule="evenodd" stroke="none" stroke-width="1"><circle id="Oval" cx="152.5" cy="152.5" r="152.5" fill="#FFF"/><g id="32" transform="translate(90.000000, 89.000000)"><line id="Path" x1="1" x2="1" y1="128" y2="0"/><line id="Path" x1="1" x2="1" y1="128" y2="0" fill="#00FF18" opacity="0"/><path id="Path" fill="url(#linearGradient-1)" d="M10.033,109 C8.4,109 6.987,108.362 6.055,107.202 C5.103,106.017 4.776,104.388 5.159,102.732 L23.145,24.821 C23.899,21.557 27.062,19 30.349,19 L119.972,19 C121.606,19 123.019,19.638 123.95,20.798 C124.902,21.982 125.229,23.612 124.846,25.268 L106.86,103.179 C106.107,106.443 102.943,109.001 99.657,109.001 L10.033,109.001 L10.033,109 Z" opacity=".8"/><path id="Path" fill="url(#linearGradient-2)" d="M119.5,20 L30.634,20 C27.865,20 25.104,22.259 24.466,25.045 L6.632,102.955 C5.995,105.742 7.722,108 10.491,108 L99.356,108 C102.125,108 104.886,105.742 105.524,102.955 L123.358,25.044 C123.996,22.259 122.268,20 119.5,20 Z"/><path id="Path" fill="#2C5591" d="M65.165,87.558 L86.778,87.558 C89.291,87.558 91.328,89.683 91.328,92.304 C91.328,94.925 89.291,97.051 86.778,97.051 L65.165,97.051 C62.652,97.051 60.615,94.926 60.615,92.304 C60.615,89.683 62.652,87.558 65.165,87.558 Z"/><path id="Path" fill="#2C5591" d="M79.184,66.455 C78.812,67.204 78.04,68.03 76.675,68.989 L36.562,97.798 C34.372,99.389 31.228,98.799 29.541,96.479 C27.854,94.159 28.261,90.989 30.451,89.397 L66.624,63.203 L66.624,62.665 L43.896,38.487 C42.042,36.515 42.235,33.326 44.327,31.363 C46.419,29.401 49.617,29.409 51.471,31.381 L78.742,60.393 C80.29,62.04 80.405,64.534 79.184,66.455 Z"/><path id="Path" fill="#FFF" d="M78.184,65.455 C77.812,66.204 77.04,67.03 75.675,67.989 L35.562,96.798 C33.372,98.389 30.228,97.799 28.541,95.479 C26.854,93.159 27.261,89.989 29.451,88.397 L65.624,62.203 L65.624,61.665 L42.896,37.487 C41.042,35.515 41.235,32.326 43.327,30.363 C45.419,28.401 48.617,28.409 50.471,30.381 L77.742,59.393 C79.29,61.04 79.405,63.534 78.184,65.455 Z"/><path id="Path" fill="#FFF" d="M64.55,87 L86.163,87 C88.676,87 90.713,89.015 90.713,91.5 C90.713,93.985 88.676,96 86.163,96 L64.55,96 C62.037,96 60,93.985 60,91.5 C60,89.015 62.037,87 64.55,87 Z"/></g></g></svg>