<svg xmlns="http://www.w3.org/2000/svg" xmlns:xlink="http://www.w3.org/1999/xlink" width="90" height="90" version="1.1" viewBox="0 0 90 90"><title>Oval 1 + ruby_logo_2</title><desc>Created with Sketch.</desc><defs><linearGradient id="linearGradient-1" x1="84.75%" x2="58.254%" y1="111.399%" y2="64.584%"><stop offset="0%" stop-color="#FB7655"/><stop offset="0%" stop-color="#FB7655"/><stop offset="41%" stop-color="#E42B1E"/><stop offset="99%" stop-color="#900"/><stop offset="100%" stop-color="#900"/></linearGradient><linearGradient id="linearGradient-2" x1="116.651%" x2="1.746%" y1="60.89%" y2="19.288%"><stop offset="0%" stop-color="#871101"/><stop offset="0%" stop-color="#871101"/><stop offset="99%" stop-color="#911209"/><stop offset="100%" stop-color="#911209"/></linearGradient><linearGradient id="linearGradient-3" x1="75.774%" x2="38.978%" y1="219.327%" y2="7.829%"><stop offset="0%" stop-color="#871101"/><stop offset="0%" stop-color="#871101"/><stop offset="99%" stop-color="#911209"/><stop offset="100%" stop-color="#911209"/></linearGradient><linearGradient id="linearGradient-4" x1="50.012%" x2="66.483%" y1="7.234%" y2="79.135%"><stop offset="0%" stop-color="#FFF"/><stop offset="0%" stop-color="#FFF"/><stop offset="23%" stop-color="#E57252"/><stop offset="46%" stop-color="#DE3B20"/><stop offset="99%" stop-color="#A60003"/><stop offset="100%" stop-color="#A60003"/></linearGradient><linearGradient id="linearGradient-5" x1="46.174%" x2="49.932%" y1="16.348%" y2="83.047%"><stop offset="0%" stop-color="#FFF"/><stop offset="0%" stop-color="#FFF"/><stop offset="23%" stop-color="#E4714E"/><stop offset="56%" stop-color="#BE1A0D"/><stop offset="99%" stop-color="#A80D00"/><stop offset="100%" stop-color="#A80D00"/></linearGradient><linearGradient id="linearGradient-6" x1="36.965%" x2="49.528%" y1="15.594%" y2="92.478%"><stop offset="0%" stop-color="#FFF"/><stop offset="0%" stop-color="#FFF"/><stop offset="18%" stop-color="#E46342"/><stop offset="40%" stop-color="#C82410"/><stop offset="99%" stop-color="#A80D00"/><stop offset="100%" stop-color="#A80D00"/></linearGradient><linearGradient id="linearGradient-7" x1="13.609%" x2="85.764%" y1="58.346%" y2="-46.717%"><stop offset="0%" stop-color="#FFF"/><stop offset="0%" stop-color="#FFF"/><stop offset="54%" stop-color="#C81F11"/><stop offset="99%" stop-color="#BF0905"/><stop offset="100%" stop-color="#BF0905"/></linearGradient><linearGradient id="linearGradient-8" x1="27.624%" x2="50.745%" y1="21.135%" y2="79.056%"><stop offset="0%" stop-color="#FFF"/><stop offset="0%" stop-color="#FFF"/><stop offset="31%" stop-color="#DE4024"/><stop offset="99%" stop-color="#BF190B"/><stop offset="100%" stop-color="#BF190B"/></linearGradient><linearGradient id="linearGradient-9" x1="-20.667%" x2="104.242%" y1="122.282%" y2="-6.342%"><stop offset="0%" stop-color="#BD0012"/><stop offset="0%" stop-color="#BD0012"/><stop offset="7%" stop-color="#FFF"/><stop offset="17%" stop-color="#FFF"/><stop offset="27%" stop-color="#C82F1C"/><stop offset="33%" stop-color="#820C01"/><stop offset="46%" stop-color="#A31601"/><stop offset="72%" stop-color="#B31301"/><stop offset="99%" stop-color="#E82609"/><stop offset="100%" stop-color="#E82609"/></linearGradient><linearGradient id="linearGradient-10" x1="58.792%" x2="11.964%" y1="65.205%" y2="50.128%"><stop offset="0%" stop-color="#8C0C01"/><stop offset="0%" stop-color="#8C0C01"/><stop offset="54%" stop-color="#990C00"/><stop offset="99%" stop-color="#A80D0E"/><stop offset="100%" stop-color="#A80D0E"/></linearGradient><linearGradient id="linearGradient-11" x1="79.319%" x2="23.088%" y1="62.754%" y2="17.888%"><stop offset="0%" stop-color="#7E110B"/><stop offset="0%" stop-color="#7E110B"/><stop offset="99%" stop-color="#9E0C00"/><stop offset="100%" stop-color="#9E0C00"/></linearGradient><linearGradient id="linearGradient-12" x1="92.88%" x2="59.841%" y1="74.122%" y2="39.704%"><stop offset="0%" stop-color="#79130D"/><stop offset="0%" stop-color="#79130D"/><stop offset="99%" stop-color="#9E120B"/><stop offset="100%" stop-color="#9E120B"/></linearGradient><radialGradient id="radialGradient-13" cx="32.001%" cy="40.21%" r="69.573%" fx="32.001%" fy="40.21%"><stop offset="0%" stop-color="#A80D00"/><stop offset="0%" stop-color="#A80D00"/><stop offset="99%" stop-color="#7E0E08"/><stop offset="100%" stop-color="#7E0E08"/></radialGradient><radialGradient id="radialGradient-14" cx="13.549%" cy="40.86%" r="88.386%" fx="13.549%" fy="40.86%"><stop offset="0%" stop-color="#A30C00"/><stop offset="0%" stop-color="#A30C00"/><stop offset="99%" stop-color="#800E08"/><stop offset="100%" stop-color="#800E08"/></radialGradient><linearGradient id="linearGradient-15" x1="56.57%" x2="3.105%" y1="101.717%" y2="11.993%"><stop offset="0%" stop-color="#8B2114"/><stop offset="0%" stop-color="#8B2114"/><stop offset="43%" stop-color="#9E100A"/><stop offset="99%" stop-color="#B3100C"/><stop offset="100%" stop-color="#B3100C"/></linearGradient><linearGradient id="linearGradient-16" x1="30.87%" x2="92.471%" y1="35.599%" y2="100.694%"><stop offset="0%" stop-color="#B31000"/><stop offset="0%" stop-color="#B31000"/><stop offset="44%" stop-color="#910F08"/><stop offset="99%" stop-color="#791C12"/><stop offset="100%" stop-color="#791C12"/></linearGradient></defs><g id="Page-1" fill="none" fill-rule="evenodd" stroke="none" stroke-width="1"><g id="Desktop" transform="translate(-271.000000, -3020.000000)"><g id="Rectangle-154-+-Group" transform="translate(0.000000, 600.000000)"><g id="Group" transform="translate(0.000000, 58.000000)"><g id="Group-Copy-3-+-Rectangle-118-+-Oval-1-+-asp_net_icon_transparent-Copy-Copy-Copy-Copy-Copy-Copy" transform="translate(128.000000, 2362.000000)"><g id="Oval-1-+-ruby_logo_2" transform="translate(143.000000, 0.000000)"><circle id="Oval-1" cx="45" cy="45" r="45" fill="#FFF"/><g id="Ruby_logo" transform="translate(20.000000, 20.000000)"><path id="polygon3282" fill="url(#linearGradient-1)" d="M38.5678392,32.9318182 L10.1457286,49.8939394 L46.9469849,47.3840909 L49.781407,10.0883838 L38.5678392,32.9318182 Z"/><path id="polygon3293" fill="url(#linearGradient-2)" d="M47.0072864,47.3585859 L43.8442211,25.4166667 L35.228392,36.8510101 L47.0072864,47.3585859 Z"/><path id="polygon3304" fill="url(#linearGradient-3)" d="M47.05,47.3585859 L23.8768844,45.530303 L10.2688442,49.8462121 L47.05,47.3585859 Z"/><path id="polygon3319" fill="url(#linearGradient-4)" d="M10.3015075,49.8510101 L16.0904523,30.790404 L3.35175879,33.5280303 L10.3015075,49.8510101 Z"/><path id="polygon3334" fill="url(#linearGradient-5)" d="M35.2261307,36.9141414 L29.8994975,15.9444444 L14.6557789,30.3055556 L35.2261307,36.9141414 Z"/><path id="polygon3349" fill="url(#linearGradient-6)" d="M48.5728643,16.239899 L34.1633166,4.41161616 L30.1507538,17.4494949 L48.5728643,16.239899 Z"/><path id="polygon3362" fill="url(#linearGradient-7)" d="M41.8341709,0.194444444 L33.3592965,4.90151515 L28.0125628,0.131313131 L41.8341709,0.194444444 Z"/><path id="polygon3375" fill="url(#linearGradient-8)" d="M0,39.9217172 L3.55025126,33.4141414 L0.67839196,25.6616162 L0,39.9217172 Z"/><path id="path3377" fill="#FFF" d="M0.487437186,25.4166667 L3.37688442,33.6540404 L15.9321608,30.8229798 L30.2663317,17.4340909 L34.3115578,4.52020202 L27.9419598,0 L17.1128141,4.07323232 C13.701005,7.26262626 7.08040201,13.5732323 6.84170854,13.6919192 C6.60552764,13.8131313 2.46984925,21.6691919 0.487437186,25.4166667 L0.487437186,25.4166667 Z"/><path id="path3400" fill="url(#linearGradient-9)" d="M10.6331658,10.6186869 C18.0276382,3.25 27.5603015,-1.10353535 31.218593,2.60606061 C34.8746231,6.31565657 30.9974874,15.3308081 23.6030151,22.6969697 C16.2085427,30.0631313 6.79396985,34.6565657 3.13819095,30.9469697 C-0.520100503,27.239899 3.23869347,17.9848485 10.6331658,10.6186869 L10.6331658,10.6186869 Z"/><path id="path3413" fill="url(#linearGradient-10)" d="M10.3015075,49.8434343 L16.0452261,30.7222222 L35.120603,36.8813131 C28.2236181,43.3813131 20.5527638,48.8762626 10.3015075,49.8434343 L10.3015075,49.8434343 Z"/><path id="path3424" fill="url(#linearGradient-11)" d="M30.2914573,17.3964646 L35.1884422,36.8914141 C40.9497487,30.8030303 46.120603,24.2575758 48.6530151,16.1616162 L30.2914573,17.3964646 L30.2914573,17.3964646 Z"/><path id="path3435" fill="url(#linearGradient-12)" d="M48.6030151,16.260101 C50.5628141,10.3156566 51.0150754,1.78787879 41.7736181,0.204545455 L34.1907035,4.41414141 L48.6030151,16.260101 L48.6030151,16.260101 Z"/><path id="path3437" fill="#9E1209" d="M0,39.8358586 C0.271356784,49.6467172 7.31407035,49.7929293 10.3140704,49.8790404 L3.38442211,33.6136364 L0,39.8358586 L0,39.8358586 Z"/><path id="path3448" fill="url(#radialGradient-13)" d="M30.3188442,17.4267677 C34.7459799,20.1616162 43.6683417,25.6540404 43.8492462,25.7550505 C44.130402,25.9141414 47.6959799,19.7121212 48.5050251,16.2070707 L30.3188442,17.4267677 L30.3188442,17.4267677 Z"/><path id="path3459" fill="url(#radialGradient-14)" d="M16.0376884,30.7222222 L23.7160804,45.6111111 C28.2562814,43.1363636 31.8115578,40.1212121 35.0678392,36.8914141 L16.0376884,30.7222222 L16.0376884,30.7222222 Z"/><path id="path3472" fill="url(#linearGradient-15)" d="M3.35427136,33.6338384 L2.26633166,46.6540404 C4.31909548,49.4722222 7.14321608,49.7171717 10.1055276,49.4974747 C7.96231156,44.1363636 3.68090452,33.4166667 3.35427136,33.6338384 L3.35427136,33.6338384 Z"/><path id="path3485" fill="url(#linearGradient-16)" d="M34.1457286,4.4469697 L49.3994975,6.59848485 C48.5854271,3.13131313 46.0854271,0.893939394 41.8241206,0.194444444 L34.1457286,4.4469697 L34.1457286,4.4469697 Z"/></g></g></g></g></g></g></g></svg>