<svg xmlns="http://www.w3.org/2000/svg" xmlns:xlink="http://www.w3.org/1999/xlink" width="90" height="90" version="1.1" viewBox="0 0 90 90"><title>Oval 1 + 1406652142137</title><desc>Created with Sketch.</desc><defs><path id="path-1" d="M0,39.9010264 L56.9870656,39.9010264 L56.9870656,0 L0,0 L0,39.9010264 L0,39.9010264 Z"/></defs><g id="Page-1" fill="none" fill-rule="evenodd" stroke="none" stroke-width="1"><g id="Desktop" transform="translate(-1081.000000, -3020.000000)"><g id="Rectangle-154-+-Group" transform="translate(0.000000, 600.000000)"><g id="Group" transform="translate(0.000000, 58.000000)"><g id="Group-Copy-3-+-Rectangle-118-+-Oval-1-+-asp_net_icon_transparent-Copy-Copy-Copy-Copy-Copy" transform="translate(938.000000, 2362.000000)"><g id="Oval-1-+-1406652142137" transform="translate(143.000000, 0.000000)"><circle id="Oval-1" cx="45" cy="45" r="45" fill="#FFF"/><g id="surface0" transform="translate(17.000000, 25.000000)"><g id="Clipped"><mask id="mask-2" fill="#fff"><use xlink:href="#path-1"/></mask><g id="Group" mask="url(#mask-2)"><path id="Shape" fill="#666" d="M0,39.9010264 L13.4088029,19.9505132 L0,0 L10.0564866,0 L23.4652895,19.9505132 L10.0564866,39.9010264 L0,39.9010264 L0,39.9010264 Z"/><path id="Shape" fill="#999" d="M13.4088029,39.9010264 L26.8176057,19.9505132 L13.4088029,0 L23.4652895,0 L50.2824332,39.9010264 L40.2259466,39.9010264 L31.845849,27.4321848 L23.4652895,39.9010264 L13.4088029,39.9010264 L13.4088029,39.9010264 Z"/><path id="Shape" fill="#666" d="M45.8131403,28.2633797 L41.3438473,21.6133614 L56.9870656,21.6129032 L56.9870656,28.2633797 L45.8131403,28.2633797 L45.8131403,28.2633797 Z"/><path id="Shape" fill="#666" d="M39.1089698,18.2881232 L34.6392148,11.6381049 L56.9870656,11.6376467 L56.9870656,18.2881232 L39.1089698,18.2881232 L39.1089698,18.2881232 Z"/></g></g></g></g></g></g></g></g></g></svg>