<svg xmlns="http://www.w3.org/2000/svg" xmlns:xlink="http://www.w3.org/1999/xlink" width="200" height="200" version="1.1" viewBox="0 0 200 200"><title>Group</title><desc>Created with Sketch.</desc><g id="Page-1" fill="none" fill-rule="evenodd" stroke="none" stroke-width="1"><g id="jwt_logo" transform="translate(-250.000000, 0.000000)"><g id="Group"><g transform="translate(250.000000, 0.000000)"><rect id="Rectangle-path" width="200" height="200" x="0" y="0" fill="#000"/><g id="Shape"><path fill="#FFF" d="M57.5,26.9 L57.5,2.84217094e-14 L42.5,2.84217094e-14 L42.5,26.9 L50,37.2 L57.5,26.9 Z" transform="translate(50.000000, 50.000000)"/><path fill="#FFF" d="M42.5,73.1 L42.5,100 L57.5,100 L57.5,73.1 L50,62.8 L42.5,73.1 Z" transform="translate(50.000000, 50.000000)"/><path fill="#00F2E6" d="M57.5,73.1 L73.3,94.9 L85.5,86 L69.6,64.3 L57.5,60.3 L57.5,73.1 Z" transform="translate(50.000000, 50.000000)"/><path fill="#00F2E6" d="M42.5,26.9 L26.7,5.1 L14.5,14 L30.4,35.7 L42.5,39.7 L42.5,26.9 Z" transform="translate(50.000000, 50.000000)"/><path fill="#00B9F1" d="M30.4,35.7 L4.8,27.4 L0.1,41.7 L25.7,50 L37.9,46.1 L30.4,35.7 Z" transform="translate(50.000000, 50.000000)"/><path fill="#00B9F1" d="M62.1,53.9 L69.6,64.3 L95.2,72.6 L99.9,58.3 L74.3,50 L62.1,53.9 Z" transform="translate(50.000000, 50.000000)"/><path fill="#D63AFF" d="M74.3,50 L99.9,41.7 L95.2,27.4 L69.6,35.7 L62.1,46.1 L74.3,50 Z" transform="translate(50.000000, 50.000000)"/><path fill="#D63AFF" d="M25.7,50 L0.1,58.3 L4.8,72.6 L30.4,64.3 L37.9,53.9 L25.7,50 Z" transform="translate(50.000000, 50.000000)"/><path fill="#FB015B" d="M30.4,64.3 L14.5,86 L26.7,94.9 L42.5,73.1 L42.5,60.3 L30.4,64.3 Z" transform="translate(50.000000, 50.000000)"/><path fill="#FB015B" d="M69.6,35.7 L85.5,14 L73.3,5.1 L57.5,26.9 L57.5,39.7 L69.6,35.7 Z" transform="translate(50.000000, 50.000000)"/></g></g></g></g></g></svg>